# xmcd CD database file
#
# Track frame offsets:
#	150
#	36437
#	53435
#	75450
#	110920
#	141670
#	155475
#	178550
#	215265
#
# Disc length: 3220 seconds
#
# Revision: 0
# Processed by: cddbd v1.5.1PL2 Copyright (c) Steve Scherf et al.
# Submitted via: CDex 1.51
#
DISCID=7b0c9209
DTITLE=Anna Einarsson - Anagram
DYEAR=2005
DGENRE=Jazz
TTITLE0=Here and now
TTITLE1=Be still
TTITLE2=You're not playing straight
TTITLE3=Still (I admit it)
TTITLE4=Eternally
TTITLE5=Seafarer's prayer
TTITLE6=Talk to me
TTITLE7=What remains
TTITLE8=In their time
EXTD=YEAR: 2005
EXTT0=
EXTT1=
EXTT2=
EXTT3=
EXTT4=
EXTT5=
EXTT6=
EXTT7=
EXTT8=
PLAYORDER=
